# xmcd
#
# Track frame offsets: 
#        150
#        16816
#        28421
#        45118
#        65969
#        92316
#
# Disc length: 1426 seconds
#
# Revision: 0
# Processed by: cddbd v1.4PL0 Copyright (c) Steve Scherf et al.
# Submitted via: ExactAudioCopy v0.90b4
#
DISCID=41059006
DTITLE=Honky Tonk Jones - Honky Tonk Jones
DYEAR=2002
DGENRE=Texas
TTITLE0=Long Winding Road
TTITLE1=Looking At Cows
TTITLE2=Another Night Alone
TTITLE3=Austin
TTITLE4=Always Searching
TTITLE5=Best Times
EXTD=
EXTT0=
EXTT1=
EXTT2=
EXTT3=
EXTT4=
EXTT5=
PLAYORDER=
